<?xml version="1.0" encoding="utf-8"?>
<svg width="768px" height="768px" viewBox="0 0 768 768" version="1.1" xmlns:xlink="http://www.w3.org/1999/xlink" xmlns="http://www.w3.org/2000/svg">
  <defs>
    <radialGradient gradientUnits="objectBoundingBox" cx="-41.69319%" cy="32.215504%" fx="-41.69319%" fy="32.215504%" r="188.63663%" gradientTransform="translate(-0.41693193,0.32215503),scale(1,0.9846154),rotate(0.9076222),translate(0.41693193,-0.32215503)" id="gradient_1">
      <stop offset="0%" stop-color="#FFCEA8" />
      <stop offset="79.01521%" stop-color="#FF7104" />
      <stop offset="100%" stop-color="#FF6F00" />
    </radialGradient>
    <linearGradient gradientUnits="objectBoundingBox" x1="0.5" y1="0" x2="0.5" y2="1" id="gradient_2">
      <stop offset="0%" stop-color="#1F1F1F" />
      <stop offset="38.764046%" stop-color="#787878" />
      <stop offset="39.887638%" stop-color="#4F4F4F" />
      <stop offset="100%" stop-color="#1C1C1C" />
    </linearGradient>
    <radialGradient gradientUnits="objectBoundingBox" cx="33.396835%" cy="-245.8747%" fx="33.396835%" fy="-245.8747%" r="556.17474%" gradientTransform="translate(0.33396834,-2.458747),scale(0.15384616,1),rotate(61.747612),translate(-0.33396834,2.458747)" id="gradient_3">
      <stop offset="0%" stop-color="#FFFFFF" />
      <stop offset="47.191013%" stop-color="#B3B3B3" />
      <stop offset="100%" stop-color="#000000" stop-opacity="0" />
    </radialGradient>
    <radialGradient gradientUnits="objectBoundingBox" cx="8.01464%" cy="-170.729%" fx="8.01464%" fy="-170.729%" r="442.61136%" gradientTransform="translate(0.0801464,-1.70729),scale(0.25423738,1),rotate(45.04204),translate(-0.0801464,1.70729)" id="gradient_4">
      <stop offset="48.876404%" stop-color="#FFCEA8" />
      <stop offset="100%" stop-color="#FF6F00" />
    </radialGradient>
    <path d="M768 0L768 0L768 768L0 768L0 0L768 0Z" id="path_1" />
    <path d="M431.076 184C480.167 184 470.522 124.531 431.076 120.292C363.033 120.292 149.357 120 80.8585 120C42.4687 124.455 32.8903 184 80.8585 184C128.827 184 381.985 184 431.076 184Z" id="path_2" />
    <clipPath id="clip_1">
      <use xlink:href="#path_1" />
    </clipPath>
  </defs>
  <g id="Frame" clip-path="url(#clip_1)">
    <path d="M768 0L768 0L768 768L0 768L0 0L768 0Z" id="Frame" fill="none" stroke="none" />
    <g id="details--simple" fill-opacity="1" transform="translate(128.00005 32.99997)">
      <path d="M512 0L512 0L512 704L0 704L0 0L512 0Z" id="details--simple" fill="none" stroke="none" />
      <g id="flavor-jar">
        <path d="M424 184C472.608 184 512 223.392 512 272L512 616C512 664.608 472.608 704 424 704L88 704C39.3923 704 0 664.608 0 616L0 272C0 223.392 39.3923 184 88 184L424 184Z" id="jar" fill="url(#gradient_1)" stroke="#1A381B" stroke-width="4" stroke-linejoin="round" />
        <g id="screw-thread">
          <use stroke="none" fill="url(#gradient_2)" xlink:href="#path_2" fill-rule="evenodd" />
          <use stroke="none" fill="url(#gradient_3)" xlink:href="#path_2" fill-rule="evenodd" />
          <use xlink:href="#path_2" fill="none" stroke="#1A381B" stroke-width="4" />
        </g>
        <path d="M75.3302 120C-16.3261 110.884 6.43341 0.323002 87.6212 0.0993832C168.809 -0.124227 332.999 0.0993815 415.352 0.0993738C497.707 0.0993661 520.596 110.652 428.285 120C326.341 120 147.628 120 75.3302 120Z" id="lid" fill="url(#gradient_4)" fill-rule="evenodd" stroke="#1A381B" stroke-width="4" stroke-linejoin="round" />
        <path d="M110 569L403 569L403 639L110 639L110 569Z" id="Flavor-Alias" fill="none" fill-rule="evenodd" stroke="none" />
        <g id="Flavor" transform="translate(109.999954 548)">
          <g id="Flavor" fill="#1A381B">
            <path d="M9.504 89.76C8.8 89.76 8.224 89.536 7.776 89.088Q7.104 88.416 7.104 87.36L7.104 24.96Q7.104 23.904 7.776 23.232Q8.448 22.56 9.504 22.56L52.32 22.56Q53.376 22.56 54.048 23.232Q54.72 23.904 54.72 24.96L54.72 33.12Q54.72 34.176 54.048 34.848Q53.376 35.52 52.32 35.52L22.08 35.52L22.08 51.744L50.4 51.744Q51.456 51.744 52.128 52.416Q52.8 53.088 52.8 54.144L52.8 62.304Q52.8 63.264 52.128 63.936Q51.456 64.608 50.4 64.608L22.08 64.608L22.08 87.36Q22.08 88.416 21.408 89.088C20.96 89.536 20.384 89.76 19.68 89.76L9.504 89.76ZM66.912 89.76C66.208 89.76 65.632 89.536 65.184 89.088Q64.512 88.416 64.512 87.36L64.512 24Q64.512 22.944 65.184 22.272Q65.856 21.6 66.912 21.6L76.512 21.6Q77.472 21.6 78.144 22.272Q78.816 22.944 78.816 24L78.816 87.36Q78.816 88.416 78.144 89.088C77.696 89.536 77.152 89.76 76.512 89.76L66.912 89.76ZM105.6 90.72Q100.512 90.72 96.48 88.752Q92.448 86.784 90.048 83.424Q87.648 80.064 87.648 75.936Q87.648 69.12 93.168 65.184Q98.688 61.248 107.712 59.808L120.288 57.984L120.288 56.256Q120.288 52.512 118.56 50.496Q116.832 48.48 112.512 48.48Q109.344 48.48 107.424 49.728Q105.504 50.976 104.448 52.992Q103.68 54.24 102.24 54.24L93.12 54.24Q92.064 54.24 91.488 53.616Q90.912 52.992 91.008 52.128Q91.008 50.496 92.256 48.288Q93.504 46.08 96.096 43.92Q98.688 41.76 102.72 40.32Q106.752 38.88 112.608 38.88Q118.656 38.88 122.976 40.32Q127.296 41.76 129.888 44.352Q132.48 46.944 133.728 50.352Q134.976 53.76 134.976 57.696L134.976 87.36Q134.976 88.416 134.304 89.088C133.856 89.536 133.28 89.76 132.576 89.76L123.168 89.76C122.528 89.76 121.984 89.536 121.536 89.088Q120.864 88.416 120.864 87.36L120.864 83.808Q119.616 85.632 117.504 87.216Q115.392 88.8 112.464 89.76Q109.536 90.72 105.6 90.72ZM109.44 80.736Q112.608 80.736 115.104 79.392Q117.6 78.048 119.04 75.264Q120.48 72.48 120.48 68.256L120.48 66.624L111.552 68.064Q106.368 68.928 103.968 70.656Q101.568 72.384 101.568 74.88Q101.568 76.704 102.672 78.048Q103.776 79.392 105.6 80.064Q107.424 80.736 109.44 80.736ZM162.912 89.76C161.952 89.76 161.232 89.52 160.752 89.04Q160.032 88.32 159.552 87.36L141.504 42.816Q141.312 42.432 141.312 41.952Q141.312 41.088 141.936 40.464Q142.56 39.84 143.424 39.84L152.736 39.84Q153.984 39.84 154.608 40.512Q155.232 41.184 155.424 41.76L167.232 73.44L179.04 41.76Q179.328 41.184 179.952 40.512Q180.576 39.84 181.728 39.84L191.04 39.84Q191.904 39.84 192.528 40.464Q193.152 41.088 193.152 41.952Q193.152 42.432 193.056 42.816L174.912 87.36Q174.528 88.32 173.76 89.04C173.248 89.52 172.512 89.76 171.552 89.76L162.912 89.76ZM222.24 90.72Q214.272 90.72 208.896 88.08Q203.52 85.44 200.688 80.544Q197.856 75.648 197.568 69.12Q197.472 67.2 197.472 64.752Q197.472 62.304 197.568 60.48Q197.856 53.856 200.832 49.008Q203.808 44.16 209.184 41.52Q214.56 38.88 222.24 38.88Q229.824 38.88 235.2 41.52Q240.576 44.16 243.552 49.008Q246.528 53.856 246.816 60.48Q247.008 62.304 247.008 64.752Q247.008 67.2 246.816 69.12Q246.528 75.648 243.696 80.544Q240.864 85.44 235.488 88.08Q230.112 90.72 222.24 90.72ZM222.24 80.16Q226.944 80.16 229.344 77.232Q231.744 74.304 231.936 68.64Q232.032 67.2 232.032 64.8Q232.032 62.4 231.936 60.96Q231.744 55.392 229.344 52.416Q226.944 49.44 222.24 49.44Q217.536 49.44 215.088 52.416Q212.64 55.392 212.448 60.96Q212.352 62.4 212.352 64.8Q212.352 67.2 212.448 68.64Q212.64 74.304 215.088 77.232Q217.536 80.16 222.24 80.16ZM259.392 89.76C258.752 89.76 258.208 89.536 257.76 89.088Q257.088 88.416 257.088 87.36L257.088 42.24Q257.088 41.28 257.76 40.56Q258.432 39.84 259.392 39.84L268.8 39.84Q269.76 39.84 270.48 40.56Q271.2 41.28 271.2 42.24L271.2 46.08Q273.6 43.104 277.104 41.472Q280.608 39.84 285.216 39.84L289.344 39.84Q290.304 39.84 290.976 40.512Q291.648 41.184 291.648 42.24L291.648 50.496Q291.648 51.552 290.976 52.224Q290.304 52.896 289.344 52.896L280.896 52.896Q276.672 52.896 274.272 55.248Q271.872 57.6 271.872 61.92L271.872 87.36Q271.872 88.416 271.2 89.088C270.752 89.536 270.176 89.76 269.472 89.76L259.392 89.76Z" />
          </g>
        </g>
        <g id="bay-leaf" transform="translate(118.13414 238.43695)">
          <g id="leaf-dark">
            <path d="M187.125 228.652C235.01 61.0531 42.8659 4.57764e-05 42.8659 4.57764e-05C42.8659 4.57764e-05 13.2247 196.361 187.125 228.652Z" id="leaf" fill="#739F4D" fill-rule="evenodd" stroke="#1A381B" stroke-width="4" />
            <path d="M151.746 144.191C151.746 144.191 78.1483 76.9984 64.4888 43.3935" id="loader-long" fill="none" fill-rule="evenodd" stroke="#1A381B" stroke-width="6" stroke-linecap="round" stroke-linejoin="round" />
            <path d="M93.8253 83.261L93.073 51.6679" id="loader" fill="none" fill-rule="evenodd" stroke="#1A381B" stroke-width="6" stroke-linecap="round" />
            <path d="M108.117 101.314L64.4888 98.3053" id="loader" fill="none" fill-rule="evenodd" stroke="#1A381B" stroke-width="6" stroke-linecap="round" />
          </g>
          <g id="leaf-light" transform="translate(53.95775 51.66786)">
            <path d="M22.5662 200.842C216.338 237.899 220.02 18.5589 223.407 0C202.389 1.21905 9.32223 11.0328 22.5662 200.842Z" id="leaf" fill="#96C362" fill-rule="evenodd" stroke="#1A381B" stroke-width="4" />
            <path d="M134.647 138.408L101.549 139.912" id="loader" fill="none" fill-rule="evenodd" stroke="#1A381B" stroke-width="6" stroke-linecap="round" />
            <path d="M60.9296 171.505L62.434 129.381" id="loader" fill="none" fill-rule="evenodd" stroke="#1A381B" stroke-width="6" stroke-linecap="round" />
            <path d="M142.169 96.2838L140.665 58.6729" id="loader" fill="none" fill-rule="evenodd" stroke="#1A381B" stroke-width="6" stroke-linecap="round" />
            <path d="M0 218.895C0 218.895 136.778 122.565 194.824 36.1064" id="loader-long" fill="none" fill-rule="evenodd" stroke="#1A381B" stroke-width="6" stroke-linecap="round" stroke-linejoin="round" />
          </g>
        </g>
      </g>
    </g>
  </g>
</svg>