<?xml version="1.0" standalone="no"?>
<!DOCTYPE svg PUBLIC "-//W3C//DTD SVG 20010904//EN"
 "http://www.w3.org/TR/2001/REC-SVG-20010904/DTD/svg10.dtd">
<svg version="1.0" xmlns="http://www.w3.org/2000/svg"
 width="700.000000pt" height="700.000000pt" viewBox="0 0 700.000000 700.000000"
 preserveAspectRatio="xMidYMid meet">
<metadata>
Created by potrace 1.14, written by Peter Selinger 2001-2017
</metadata>
<g transform="translate(0.000000,700.000000) scale(0.100000,-0.100000)"
fill="#000000" stroke="none">
<path d="M1878 6710 c-274 -33 -489 -210 -563 -464 -13 -44 -16 -86 -13 -165
3 -98 6 -112 41 -185 67 -142 197 -240 376 -285 l75 -18 -30 -16 c-48 -25
-111 -98 -141 -162 -37 -80 -40 -197 -6 -261 25 -47 95 -112 130 -120 33 -9
28 -21 -11 -28 -54 -10 -207 -89 -272 -141 -163 -129 -272 -315 -304 -515 -8
-56 -10 -508 -8 -1745 3 -1579 5 -1673 22 -1730 103 -341 378 -571 723 -605
130 -13 3076 -13 3206 0 345 34 620 263 723 605 17 57 19 151 21 1740 4 1842
6 1754 -56 1909 -53 133 -139 248 -251 337 -69 55 -220 134 -276 145 -33 6
-48 24 -21 24 33 0 107 61 136 111 39 69 47 130 27 211 -27 103 -97 190 -190
234 l-36 18 68 21 c106 34 187 82 250 149 99 107 138 218 129 365 -16 260
-194 466 -477 553 l-75 23 -1565 1 c-861 1 -1595 -2 -1632 -6z m912 -2242
c349 -149 679 -382 875 -617 l58 -70 56 28 c158 80 370 151 578 195 97 20 351
56 401 56 17 0 15 -42 -8 -227 -57 -450 -177 -815 -357 -1088 -80 -119 -246
-290 -348 -357 -225 -146 -431 -202 -735 -201 -161 1 -351 20 -368 38 -12 12
-7 346 6 435 7 47 24 133 39 191 l25 105 -56 75 c-69 91 -183 315 -225 441
-79 241 -114 464 -115 748 0 107 3 221 8 253 9 68 -5 68 166 -5z m2000 -2963
c16 -8 34 -24 40 -34 6 -12 10 -121 10 -280 l0 -260 -24 -28 -24 -28 -1287 0
-1287 0 -24 28 -24 28 0 260 c0 159 4 268 10 279 27 51 -29 49 1323 50 1103 0
1262 -2 1287 -15z"/>
</g>
</svg>
